HIERARCHY
ROOT Hips
{
  OFFSET 0.0 0.0 0.0
  CHANNELS 6 XPOSITION YPOSITION ZPOSITION ZROTATION XROTATION YROTATION 
  JOINT LeftUpLeg
  {
    OFFSET 0.089458 -0.0866707 0.00101652
    CHANNELS 3 ZROTATION XROTATION YROTATION 
    JOINT LeftLeg
    {
      OFFSET 0.0 -0.444227 0.013727
      CHANNELS 3 ZROTATION XROTATION YROTATION 
      JOINT LeftFoot
      {
        OFFSET -0.00253549 -0.420924 -0.0146059
        CHANNELS 3 ZROTATION XROTATION YROTATION 
        End Site
        {
          OFFSET -0.0004 -0.0441509 0.084991
        }
      }
    }
  }
  JOINT Spine
  {
    OFFSET 0.0 0.118905 0.0
    CHANNELS 3 ZROTATION XROTATION YROTATION 
    JOINT Spine1
    {
      OFFSET 0.0 0.256574 0.00127663
      CHANNELS 3 ZROTATION XROTATION YROTATION 
      End Site
      {
        OFFSET -0.0029 0.2150836 0.02525291
      }
      JOINT RightArm
      {
        OFFSET -0.162727 -0.05365632 0.00102123
        CHANNELS 3 ZROTATION XROTATION YROTATION 
        JOINT RightForeArm
        {
          OFFSET -0.26364 0.00099144 -0.0142434
          CHANNELS 3 ZROTATION XROTATION YROTATION 
          End Site
          {
            OFFSET -0.220324 0.00085362 0.0102216
          }
        }
      }
      JOINT LeftArm
      {
        OFFSET 0.162727 -0.0536563199 0.00102123
        CHANNELS 3 ZROTATION XROTATION YROTATION 
        JOINT LeftForeArm
        {
          OFFSET 0.262597 0.00099144 -0.0142434
          CHANNELS 3 ZROTATION XROTATION YROTATION 
          End Site
          {
            OFFSET 0.220902 0.00085362 0.0102216
          }
        }
      }
    }
  }
  JOINT RightUpLeg
  {
    OFFSET -0.089458 -0.0866707 0.00101652
    CHANNELS 3 ZROTATION XROTATION YROTATION 
    JOINT RightLeg
    {
      OFFSET 0.0 -0.444227 0.013727
      CHANNELS 3 ZROTATION XROTATION YROTATION 
      JOINT RightFoot
      {
        OFFSET 0.00253549 -0.420924 -0.0146059
        CHANNELS 3 ZROTATION XROTATION YROTATION 
        End Site
        {
          OFFSET 0.0004 -0.0441509 0.084991
        }
      }
    }
  }
}
MOTION
Frames: 19
Frame Time: 0.033333
-36.441635 0.945009363165 -0.1604415 -5.44390025201 -5.26577019911 -96.9763987039 -13.7576001064 -19.6203997022 -3.98323014705 1.46190999773 38.9635995921 24.7774998841 1.5725699479 -18.4550994204 0.249789996427 -2.78987998584 16.0844005236 3.3315600908 -7.66086994668 -0.273481014491 4.00387994335 82.562670989 -18.4632734493 23.5570133813 13.1422999537 41.7038988079 -0.136369996164 -70.2621628221 -13.9218550569 8.82788289846 -6.25607975376 39.6423018295 -10.9149001333 -7.63860011489 -3.95332032179 6.00277023556 -3.6805498871 79.0044976012 -8.62200989782 11.3050004114 -1.76848997554 -0.713863997932 
-36.493155 0.962249363165 -0.1604016 -5.72775992571 -4.32263974927 -95.8777969268 -13.111599961 -13.4019999677 -4.69229001404 1.39315998159 34.6805006617 24.9935012015 1.23826996751 -19.4760009654 0.233751991884 -1.96523005276 16.7486995997 2.35566010086 -6.61497033615 -0.824409969319 2.90282015197 82.3768830133 -19.9769628977 18.0715706381 15.463298979 47.0367978137 -5.95230026024 -73.1451856708 -4.34781326523 4.9845999124 -2.00516019243 29.326701277 -19.56579917 -6.23888987517 -11.5350002015 4.88645052092 -4.81697981309 80.739099273 -9.40869998736 10.024800126 -5.96968010347 -0.309076998918 
-36.544749 0.975220363165 -0.1605453 -5.91435984006 -3.28384012039 -94.9015033472 -12.0045005748 -7.39318031896 -4.39312004443 1.31685993837 30.3777000506 24.5186988938 0.644031983775 -20.9927008197 0.191965001264 -1.21875995903 17.2866999402 1.62097998086 -5.22400999564 -1.34934004919 2.01918000947 80.6065048107 -21.4728545806 10.8836562867 15.6546996626 48.4280971023 -6.96459021741 -73.8621506279 -3.39007794995 1.73408673958 1.78960006255 27.4816998426 -28.5563003349 -4.86674969403 -18.4616990907 3.81587002182 -4.32053989299 78.8693008368 -12.1048001952 8.70859022951 -8.69851911558 -0.0983823916504 
-36.596409 0.983203363165 -0.161005 -5.88816990657 -2.49093007639 -94.0103002643 -10.9370999557 -1.62280001283 -3.28406999894 1.25884004269 25.8135012699 23.3250021005 1.28170004551 -21.6359014414 0.279193000308 -0.787003958081 17.4181998648 0.968222003532 -3.70975022646 -1.71455997579 1.25505003475 77.9019684654 -22.2956294133 2.85341163073 13.9207997927 46.1287992956 -4.2002798985 -73.7901877549 -8.61936746838 -1.34415348102 5.78849994422 30.8810986529 -38.7202980086 -4.00775009929 -24.1867995115 2.47415000914 -3.13620024539 73.1475967275 -15.7348997438 8.43279999743 -11.5692997039 0.0976465988499 
-36.648051 0.985834363165 -0.161977 -5.65287031655 -2.23906002055 -92.9856967567 -10.3114998777 3.58828000783 -1.8157701458 1.23262001368 21.671199859 21.483700921 2.36335985849 -22.1753002632 0.431009989548 -0.890775022141 17.081900133 0.317308977693 -2.51454011936 -1.8418298788 0.480446018307 74.9620296504 -22.2908551111 -5.3029230131 11.9078004641 42.7849982252 -0.0589927040472 -73.5794012869 -11.5129660112 -4.61891243801 9.08567045943 31.437499523 -48.3362993599 -4.21785013325 -28.3036994488 0.392873975163 -2.19409987345 63.4312974634 -17.5879010373 9.16617021522 -13.3325992693 0.251472997727 
-36.700944 0.983437363165 -0.1630861 -5.48961983076 -2.13197012489 -92.0946985795 -9.7036898812 8.59697981583 -0.077844999992 0.978203044343 18.2597986988 19.1634002826 2.0491801213 -23.8030999745 0.428449015455 -0.891482960577 16.63849962 -0.351741989012 -1.7185499802 -1.84510004531 -0.235417997753 72.3141702148 -21.3734548376 -12.6909721524 10.4242005603 40.0166986489 3.51560017831 -73.1162393291 -13.5500391953 -7.94412216043 11.7728000676 31.0161007569 -56.8564993117 -4.79015040315 -30.5663020642 -2.00607010169 -1.49501998006 50.9312999614 -17.0306002897 9.56124030964 -13.1800000366 0.259790994197 
-36.755121 0.975051363165 -0.16459449 -5.78924016597 -1.907250071 -91.5112023489 -8.98570978716 13.5851002639 1.65019995701 0.619319025337 16.3049985584 16.8538998808 0.619117001148 -25.993999264 0.249426022049 -0.821467064921 16.4817006748 -0.989734004488 -0.780223981474 -1.54321998471 -0.962582081546 70.1686711928 -19.9575941887 -18.2629832745 9.85537984493 37.9270022723 5.14710974955 -72.7036139409 -15.7321096115 -10.8858359709 14.1173000663 30.2175013788 -64.2611995985 -4.81346994963 -30.8750983317 -4.334590019 -1.10154003905 37.8983018174 -15.6109984047 10.5766999015 -13.2900002332 0.323200015853 
-36.8111635 0.961073363165 -0.16723737 -6.48564027733 -1.7826500249 -90.7234971225 -8.48485969928 18.0646004301 2.98372993255 0.799998979947 16.7152999746 14.8461999252 -0.627712047166 -28.0974004151 0.0431605990254 -1.42109001249 16.1903999369 -1.6378200257 0.815957983747 -0.637133972961 -1.9533700696 67.7741093226 -19.7938028373 -22.0597471228 10.2102995261 37.4818993347 4.60802042072 -72.6807396374 -18.082814837 -13.1319556322 15.5403998619 29.2238010621 -69.7701979566 -4.41161022029 -29.6111001088 -7.00705008838 -0.861846983211 27.40099945 -14.4586003502 12.4558002016 -14.3028003201 0.517659023339 
-36.86987573 0.946733363165 -0.17031285 -6.99337989164 -1.38295002272 -89.5500979438 -7.74549001408 21.7948006698 3.19872016852 1.39668990873 18.5194995665 13.7055002772 -2.70089990987 -29.6999984359 -0.379653983942 -1.75522991032 15.2270000469 -2.32146006303 2.69821991439 0.523250973918 -3.05287001653 64.8084685057 -20.9253739375 -25.1136117856 10.6867000981 37.9902976354 3.19412985451 -73.0046886795 -19.886708778 -13.9871926465 15.9343993242 28.4419988267 -72.8777018025 -3.31888005805 -28.0383995335 -8.99319994336 -0.51349602304 22.6142987192 -13.9464010493 11.9751000255 -13.6451000606 0.432507001596 
-36.9312201 0.935064363165 -0.172744413 -7.14285004389 -0.26228001118 -89.732798674 -5.9181198592 24.3544994386 2.49053990183 1.31863002458 21.9801993246 13.7291002884 -7.26060037075 -29.6515997155 -1.28385998612 -0.0688514017632 13.9798006743 -2.8985299394 3.71237984929 0.992001093684 -3.62134964935 61.5006693624 -22.8168223659 -27.8930992117 10.7358996582 38.0635992255 1.85343010133 -73.3811618764 -20.9624755251 -12.4517089183 16.3905005739 28.2454994069 -74.0790023039 -0.733201010524 -27.5237994211 -8.60431970787 -0.468694037509 24.816399519 -13.925000359 7.28861951427 -10.2326000937 -0.00419793998508 
-36.993702 0.925505363165 -0.17496174 -7.37149959098 2.23424004143 -89.9496025386 -2.98903997774 24.4176001413 3.75831031014 0.812602973482 30.1096014653 13.1980991842 -11.657500498 -24.979600059 -1.67931000981 3.37541993711 13.2406000363 -3.23042014367 3.54641009444 0.575886012487 -3.4218201869 58.815482943 -25.2164607741 -29.0595725786 10.4755004036 36.9554010327 0.48057200328 -73.7849489998 -21.5748873615 -8.80601092519 17.6408998902 28.8551996582 -73.5998030619 3.2422101174 -27.8603006433 -6.0783795759 -1.01269998196 31.6696030114 -14.0487002076 1.13154004416 -7.14948984154 -0.187309000045 
-37.051911 0.921352363165 -0.17814368 -7.76710927035 4.60882979814 -91.0217988043 0.898987043958 20.2918004675 6.0124003754 1.11751990695 43.9639981589 12.8182996852 -11.7260995029 -13.128599448 -0.55153099865 6.59211011989 13.1441005624 -3.43781990504 3.51439998601 0.391743979062 -3.08820002378 58.1866888979 -28.300330458 -27.0117281861 10.1104993633 35.4250971492 -0.896024983014 -74.5088944103 -21.2178562981 -5.20944205592 18.6679007942 30.4763006615 -70.2089966296 7.16400015155 -27.0381012541 -2.80030007975 -1.10840000358 37.7519001277 -15.7591008116 -2.36935996624 -8.25412054119 -0.191813002874 
-37.101128 0.921144363165 -0.18208487 -8.06814046651 6.71656000855 -89.8123976985 5.06857025806 11.7690998126 5.17639973515 1.65674007659 60.7486996857 14.1690003294 -8.973319824 -0.555042036049 0.549434023853 8.93109986342 13.2847998979 -3.94452004993 4.52064992152 1.1215199432 -3.12912993238 60.5757661261 -31.2235233567 -21.9323982457 9.64963064147 34.2014004575 -1.26078002986 -75.6417017747 -18.5838143353 -3.58762132146 17.5681003189 32.8797998342 -62.2049028469 9.66403038778 -25.2378990304 -2.26151021202 -1.24301011879 41.4526024879 -17.6320991914 -2.14488003619 -13.058299726 -0.299777989848 
-37.146436 0.925842363165 -0.1853057 -8.27439937284 7.73875971643 -87.5156031562 7.22606010412 1.74033006609 2.9502299891 3.25078008381 75.3856994544 14.2550999865 -6.22588007235 2.93383006458 0.562107012971 10.7464002203 13.3512004357 -4.36035007745 5.22715017511 1.71727006679 -3.02789009374 65.0929253941 -32.4680282197 -15.5276530214 9.26534968461 33.4166970992 0.236160007093 -76.5732302944 -12.9962995376 -3.54098735113 13.523199967 34.6745993783 -49.8257996933 10.4944003908 -22.2121013224 -3.75397015181 -1.31344996643 42.1779993136 -18.5812991181 -0.305159004975 -17.3511000863 -0.266431992463 
-37.195568 0.938656363165 -0.1871904 -8.52004029615 7.55080998594 -86.4512001363 6.97245005759 -7.07809003216 2.01581998329 8.79645975941 84.4319025195 9.29646973401 -3.78202984958 -1.58474998946 0.194294002389 11.9216998991 13.2346005689 -3.84903998175 4.10702006869 1.36758006937 -2.04586000903 69.9392724593 -31.0632529678 -8.9335595853 9.07031021776 32.9216005919 3.2974300624 -76.8795984297 -5.05947927627 -3.33049201997 7.64640958243 33.6936032134 -36.0043996436 10.2584002795 -17.3527000582 -4.92552987514 -1.27206990567 40.0112003466 -18.3080010513 0.752850984519 -19.2166996638 -0.173585989404 
-37.246366 0.953198363165 -0.1881236 -8.77754013541 6.86812019868 -86.9517027383 6.1297703461 -14.4983008248 2.42170013273 21.1106001301 87.5974971243 -3.16687996104 -3.51249991276 -7.4329294586 0.0296715990696 12.7849999517 13.1658000734 -2.70862997646 1.95038015429 0.635035984308 -0.438913025346 73.9039240649 -25.711471904 -2.28730890374 8.4573801407 31.1091006126 7.63829958657 -76.9425454531 0.591673888032 -1.85653997184 2.15049018282 31.688003541 -24.2621006395 9.82076017735 -11.8500998798 -4.80328997956 -1.17789995315 36.862401177 -17.9356993925 1.24138997658 -20.4179011275 -0.114801005817 
-37.297317 0.964012363165 -0.1887915 -9.089409988 6.0339701128 -87.8601998602 5.29452999128 -21.0860012038 2.76849999963 14.8112993661 86.6033016189 3.5234698369 -4.26718032076 -10.4185007675 -0.0540593998159 13.1704002058 13.2427993572 -1.58262003765 0.0175040005944 -0.169451990728 1.00560000032 75.8029830316 -15.2831083434 3.70066223288 6.57272006661 25.038199667 13.7472002897 -76.1894897763 -6.59226337226 0.910948732907 -3.80541001399 39.0339983519 -14.5005001457 9.12983019374 -6.24237967495 -4.29399991231 -0.829363030406 33.6073993959 -17.7924993539 2.13457007908 -22.2996984985 0.0113986002165 
-37.348671 0.971285363165 -0.1892187 -9.5172598678 5.02984009726 -88.4453968079 4.03335007518 -26.361000696 2.25958004325 6.42682978726 81.9233994336 13.5135002446 -4.11969988799 -12.8004003207 -0.125224007892 13.0029999532 13.3391997934 -0.704172012861 -1.75551997991 -0.876517002249 1.94823013881 75.5295500685 -6.81131650356 8.66264269319 4.42283947817 19.0103989226 20.7913997769 -73.723900769 -16.035202671 4.71516730578 -10.0185001302 47.1752013519 -5.34850983006 7.89833086469 -0.228489010964 -4.17321996967 0.000369667990993 29.7076004365 -17.4793010295 2.85836010279 -23.7926002662 0.1344390003 
-37.399717 0.975039563165 -0.1890822 -9.14171045403 4.22766127311 -89.0212363964 2.52749592099 -30.4499293011 0.787891455787 3.4718067129 73.6269872148 18.0275432387 -4.49514898337 -16.4269908596 -0.212969247024 12.6024904668 13.7663265269 0.0109033239565 -3.42897673105 -1.27744857292 2.58218759356 75.1970018182 -7.93480236731 14.1735825326 3.57405400445 19.2795169136 26.1448388691 -71.034322538 -18.0479586742 8.15617648227 -13.1796534045 48.8233191685 -0.411106978389 6.823166028 5.54928281383 -4.57525728393 0.721328807726 25.5235785226 -16.0374685863 2.53768699012 -22.7272956613 -0.22915137923 
